<?xml version="1.0" encoding="UTF-8"?>
<svg version="1.1" xmlns="http://www.w3.org/2000/svg" width="168" height="150">
<path d="M0 0 C55.44 0 110.88 0 168 0 C168 49.5 168 99 168 150 C112.56 150 57.12 150 0 150 C0 100.5 0 51 0 0 Z " fill="#FEFEFE" transform="translate(0,0)"/>
<path d="M0 0 C3.74640601 3.41218307 6.62506391 7.05023007 8 12 C8 12.99 8 13.98 8 15 C-5.08091811 15.79653764 -5.08091811 15.79653764 -8.8125 12.5625 C-9.534375 11.716875 -10.25625 10.87125 -11 10 C-15.06267533 8.79401103 -18.79815721 8.76985989 -22.9375 9.5625 C-25.90957259 11.63394453 -26.26030183 13.50324502 -27 17 C-27.50490722 21.03925774 -27.19435392 22.65150331 -25.1875 26.25 C-23.11320337 29.14542239 -23.11320337 29.14542239 -20 31 C-17.80540133 31.06310722 -17.80540133 31.06310722 -15.5 30.6875 C-14.33984375 30.53861328 -14.33984375 30.53861328 -13.15625 30.38671875 C-10.82760379 30.02241751 -10.82760379 30.02241751 -8 29 C-7.67 28.01 -7.34 27.02 -7 26 C-2.38 26 2.24 26 7 26 C5.91172349 32.52965906 4.4473937 35.74582159 -0.375 40.1875 C-5.80486404 43.93669184 -10.26425823 45.56177533 -16.875 45.5 C-17.58317871 45.49427979 -18.29135742 45.48855957 -19.02099609 45.48266602 C-26.16303297 45.23834616 -29.77630564 43.1866404 -34.69921875 38.3203125 C-40.8720587 31.59445783 -42.6362187 25.63063884 -42.40625 16.546875 C-41.5804206 9.33674907 -38.76755785 4.06673943 -33.125 -0.5 C-22.81621419 -7.28310442 -10.033712 -7.12357845 0 0 Z " fill="#D9121A" transform="translate(100,52)"/>
</svg>
